<svg xmlns="http://www.w3.org/2000/svg" width="512" height="512" viewBox="0 0 512 512">
  <defs>
    <style>
      .a {
        fill: #fff;
      }

      .b {
        fill: #231f20;
      }
    </style>
  </defs>
  <g>
    <path class="b"
      d="M419,85.59a16,16,0,0,0-12.88-3.65l-218.9,34.41a16,16,0,0,0,5,31.61l200.42-31.5V145L239.52,169A16,16,0,0,0,242,200.83a16.41,16.41,0,0,0,2.51-.19l148.07-23.27v94.07a61.59,61.59,0,0,0-56.21,1.31,16,16,0,1,0,15.37,28.06,29.3,29.3,0,0,1,14-3.52c14.77,0,26.8,10.63,26.8,23.71a21.61,21.61,0,0,1-4.4,13,16,16,0,1,0,25.67,19.11,53.58,53.58,0,0,0,10.5-27.26,15.67,15.67,0,0,0,.23-2.58V97.75A16,16,0,0,0,419,85.59Z" />
    <path class="b"
      d="M416.63,415,74.5,74A16,16,0,1,0,51.91,96.67l102.37,102V311.15A61,61,0,0,0,127.49,305c-32.43,0-58.8,25-58.8,55.71s26.37,55.71,58.8,55.71,58.79-25,58.79-55.71V230.58L394,437.63A16,16,0,1,0,416.63,415ZM127.49,384.42c-14.78,0-26.8-10.63-26.8-23.71s12-23.71,26.8-23.71,26.79,10.64,26.79,23.71S142.26,384.42,127.49,384.42Z" />
  </g>
</svg>