<svg xmlns="http://www.w3.org/2000/svg" width="512" height="512" viewBox="0 0 512 512">
  <defs>
    <style>
      .a {
        fill: #fff;
      }

      .b {
        fill: #231f20;
      }
    </style>
  </defs>
  <g>
    <path class="b"
      d="M419,85.59a16,16,0,0,0-12.88-3.65L167.8,119.39a16,16,0,0,0-13.52,15.81v176A61,61,0,0,0,127.49,305c-32.43,0-58.8,25-58.8,55.71s26.37,55.71,58.8,55.71,58.79-25,58.79-55.71V209.78l206.28-32.41v94.07a61.08,61.08,0,0,0-26.8-6.15c-32.42,0-58.8,25-58.8,55.71s26.38,55.71,58.8,55.71c30.65,0,55.88-22.34,58.55-50.73a16.28,16.28,0,0,0,.25-2.72V97.75A16,16,0,0,0,419,85.59ZM127.49,384.42c-14.78,0-26.8-10.63-26.8-23.71s12-23.71,26.8-23.71,26.79,10.64,26.79,23.71S142.26,384.42,127.49,384.42Zm58.79-207V148.88l206.28-32.42V145ZM365.76,344.71C351,344.71,339,334.08,339,321s12-23.71,26.8-23.71,26.8,10.63,26.8,23.71S380.53,344.71,365.76,344.71Z" />
  </g>
</svg>