<svg xmlns="http://www.w3.org/2000/svg" width="512" height="512" viewBox="0 0 512 512">
  <defs>
    <style>
      .a {
        fill: #fff;
      }

      .b {
        fill: #231f20;
      }
    </style>
  </defs>
  <g>
    <path class="b"
      d="M298.84,442.3c-12.74,0-25.63-4.27-37.12-12.64l-.16-.12-91.34-68.35a32.26,32.26,0,0,0-14.33-4H109.44c-18.11,0-34.25-6.2-45.46-17.46-11-11-16.72-26.18-16.65-43.87V215.88C47.26,198.26,53,183.09,64,172.08c11.21-11.26,27.35-17.46,45.46-17.46h46.45a32.26,32.26,0,0,0,14.33-4l91.5-68.47c19.43-14.16,42.9-16.58,62.8-6.46s32.25,30.8,32.25,54c0,29.33,0,78.33,0,126.12,0,.2,0,97,0,126.34,0,23.2-12.36,43.9-32.25,54A56.52,56.52,0,0,1,298.84,442.3Zm-18.19-38.44c9.62,7,20.31,8.34,29.36,3.73s14.76-14.39,14.76-25.48c0-29.33,0-126.34,0-126.34h0c0-47.79,0-96.78,0-126.11,0-11.09-5.65-20.86-14.76-25.49s-19.75-3.23-29.36,3.74l-91.91,68.77-.3.21c-8.43,5.73-21.81,9.73-32.55,9.73H109.44c-9.53,0-17.63,2.86-22.79,8-4.89,4.91-7.36,12-7.32,21.15v80.08c0,9.19,2.43,16.3,7.32,21.22,5.16,5.18,13.26,8,22.79,8h46.45c10.74,0,24.12,4,32.55,9.73l.59.42Z" />
    <path class="b"
      d="M379.79,337.59A16,16,0,0,1,368,310.8a81.28,81.28,0,0,0,0-109.6,16,16,0,0,1,23.62-21.59,113.27,113.27,0,0,1,0,152.77A16,16,0,0,1,379.79,337.59Z" />
    <path class="b"
      d="M388.83,420.56a16,16,0,0,1-9.49-28.9,168.28,168.28,0,0,0,0-271.32,16,16,0,0,1,19-25.79,200.22,200.22,0,0,1,0,322.9A16,16,0,0,1,388.83,420.56Z" />
  </g>
</svg>