<svg xmlns="http://www.w3.org/2000/svg" width="512" height="512" viewBox="0 0 512 512">
  <defs>
    <style>
      .a {
        fill: #fff;
      }

      .b {
        fill: #231f20;
      }
    </style>
  </defs>
  <g>
    <path class="b"
      d="M340.78,293.89h0a16,16,0,0,1-16-16c0-26.27,0-118.9,0-148.23,0-11.09-5.65-20.86-14.76-25.49s-19.75-3.23-29.36,3.74l-65.39,49a16,16,0,1,1-19.19-25.6l65.65-49.2c19.43-14.16,42.9-16.58,62.8-6.46s32.25,30.8,32.25,54c0,29.33,0,122,0,148.24A16,16,0,0,1,340.78,293.89Z" />
    <path class="b"
      d="M416.63,415,74.5,74A16,16,0,1,0,51.91,96.67l58.15,58h-.62c-18.11,0-34.25,6.2-45.46,17.46-11,11-16.72,26.18-16.65,43.8v79.94C47.26,313.51,53,328.68,64,339.69c11.21,11.26,27.35,17.46,45.46,17.46h46.45a32.26,32.26,0,0,1,14.33,4l91.34,68.35.16.12c11.49,8.37,24.38,12.64,37.12,12.64a56.52,56.52,0,0,0,25.68-6.18,58.92,58.92,0,0,0,30.14-37.73L394,437.63A16,16,0,1,0,416.63,415ZM324.78,377v.66c0,.11,0,.21,0,.32v4.1c0,11.09-5.65,20.86-14.76,25.48s-19.75,3.24-29.36-3.73L189,335.3l-.59-.42c-8.43-5.73-21.81-9.73-32.55-9.73H109.44c-9.53,0-17.63-2.86-22.79-8-4.89-4.92-7.36-12-7.32-21.22V215.81c0-9.12,2.43-16.24,7.32-21.15,5.16-5.18,13.26-8,22.79-8h32.73l182.61,182Z" />
  </g>
</svg>